PathFileType	4	(X/Y/Z)	C:\Users\italobelli\Desktop\GitHub\PTbot_officialCBL\Personal_Results\FLX22_noisy2.trc
DataRate	CameraRate	NumFrames	NumMarkers	Units	OrigDataRate	OrigDataStartFrame	OrigNumFrames
106.125000	106.125000	25	9	m	106.125000	744	850
Frame#	Time		gu		centelbow		EpL		centpxt8		centijc7		ij		ts		aa		ai
			X1	Y1	Z1	X2	Y2	Z2	X3	Y3	Z3	X4	Y4	Z4	X5	Y5	Z5	X6	Y6	Z6	X7	Y7	Z7	X8	Y8	Z8	X9	Y9	Z9

744	7.0012	-0.077572	-0.016808	0.16074	-0.14264	-0.24705	0.19702	-0.12257	-0.24474	0.22215	-0.046816	-0.15316	-0.008669	-0.046816	0.031938	-0.008669	0	0	0	-0.13432	0.031693	0.052914	-0.10263	0.020259	0.16732	-0.15649	-0.079636	0.053359
745	7.0106	-0.077599	-0.016809	0.16076	-0.14287	-0.24702	0.19689	-0.12285	-0.2447	0.22203	-0.046816	-0.15316	-0.008669	-0.046816	0.031938	-0.008669	0	0	0	-0.13431	0.031688	0.052918	-0.10267	0.020275	0.16734	-0.15648	-0.079637	0.053351
746	7.02	-0.077625	-0.016808	0.16078	-0.1431	-0.24698	0.19676	-0.12314	-0.24466	0.22193	-0.046816	-0.15316	-0.008669	-0.046816	0.031938	-0.008669	0	0	0	-0.13431	0.031682	0.052922	-0.10272	0.020292	0.16737	-0.15647	-0.079641	0.053347
747	7.0294	-0.077653	-0.016807	0.16079	-0.14333	-0.24695	0.19664	-0.12343	-0.24463	0.22184	-0.046816	-0.15316	-0.008669	-0.046816	0.031938	-0.008669	0	0	0	-0.13431	0.031675	0.052927	-0.10277	0.020309	0.16739	-0.15646	-0.079645	0.053346
748	7.0389	-0.07768	-0.016806	0.16081	-0.14357	-0.24692	0.19654	-0.12373	-0.24459	0.22176	-0.046816	-0.15316	-0.008669	-0.046816	0.031938	-0.008669	0	0	0	-0.1343	0.031667	0.052932	-0.10282	0.020326	0.16741	-0.15645	-0.079651	0.053349
749	7.0483	-0.077708	-0.016803	0.16083	-0.14381	-0.24689	0.19644	-0.12402	-0.24455	0.22169	-0.046816	-0.15316	-0.008669	-0.046816	0.031938	-0.008669	0	0	0	-0.1343	0.031657	0.052936	-0.10287	0.020344	0.16743	-0.15644	-0.079659	0.053355
750	7.0577	-0.077736	-0.0168	0.16085	-0.14404	-0.24685	0.19635	-0.12432	-0.24451	0.22163	-0.046816	-0.15316	-0.008669	-0.046816	0.031938	-0.008669	0	0	0	-0.1343	0.031646	0.052941	-0.10292	0.020362	0.16746	-0.15643	-0.079668	0.053363
751	7.0671	-0.077764	-0.016796	0.16087	-0.14428	-0.24682	0.19626	-0.12461	-0.24447	0.22157	-0.046816	-0.15316	-0.008669	-0.046816	0.031938	-0.008669	0	0	0	-0.13429	0.031634	0.052946	-0.10297	0.020381	0.16748	-0.15642	-0.079679	0.053375
752	7.0766	-0.077792	-0.016792	0.16089	-0.14452	-0.24679	0.19619	-0.12491	-0.24442	0.22153	-0.046816	-0.15316	-0.008669	-0.046816	0.031938	-0.008669	0	0	0	-0.13429	0.03162	0.052951	-0.10302	0.0204	0.1675	-0.15641	-0.079691	0.053389
753	7.086	-0.077821	-0.016787	0.16092	-0.14477	-0.24675	0.19612	-0.12521	-0.24438	0.2215	-0.046816	-0.15316	-0.008669	-0.046816	0.031938	-0.008669	0	0	0	-0.13429	0.031606	0.052955	-0.10308	0.020419	0.16753	-0.15641	-0.079704	0.053406
754	7.0954	-0.07785	-0.016782	0.16094	-0.14501	-0.24672	0.19606	-0.1255	-0.24434	0.22147	-0.046816	-0.15316	-0.008669	-0.046816	0.031938	-0.008669	0	0	0	-0.13428	0.031591	0.05296	-0.10313	0.020438	0.16755	-0.1564	-0.079719	0.053426
755	7.1048	-0.077879	-0.016776	0.16096	-0.14525	-0.24668	0.19601	-0.1258	-0.24429	0.22145	-0.046816	-0.15316	-0.008669	-0.046816	0.031938	-0.008669	0	0	0	-0.13428	0.031574	0.052965	-0.10319	0.020458	0.16757	-0.15639	-0.079734	0.053447
756	7.1143	-0.077908	-0.01677	0.16098	-0.14549	-0.24665	0.19596	-0.1261	-0.24425	0.22143	-0.046816	-0.15316	-0.008669	-0.046816	0.031938	-0.008669	0	0	0	-0.13428	0.031557	0.05297	-0.10324	0.020478	0.1676	-0.15638	-0.079751	0.053471
757	7.1237	-0.077938	-0.016763	0.16101	-0.14573	-0.24661	0.19592	-0.12639	-0.2442	0.22143	-0.046816	-0.15316	-0.008669	-0.046816	0.031938	-0.008669	0	0	0	-0.13428	0.031539	0.052975	-0.1033	0.020497	0.16762	-0.15638	-0.079769	0.053498
758	7.1331	-0.077967	-0.016756	0.16103	-0.14597	-0.24658	0.19589	-0.12669	-0.24415	0.22143	-0.046816	-0.15316	-0.008669	-0.046816	0.031938	-0.008669	0	0	0	-0.13428	0.03152	0.05298	-0.10336	0.020518	0.16765	-0.15637	-0.079787	0.053526
759	7.1425	-0.077997	-0.016749	0.16105	-0.14621	-0.24654	0.19586	-0.12698	-0.24411	0.22143	-0.046816	-0.15316	-0.008669	-0.046816	0.031938	-0.008669	0	0	0	-0.13428	0.031501	0.052985	-0.10341	0.020538	0.16767	-0.15636	-0.079807	0.053556
760	7.1519	-0.078026	-0.016742	0.16108	-0.14645	-0.2465	0.19583	-0.12727	-0.24406	0.22144	-0.046816	-0.15316	-0.008669	-0.046816	0.031938	-0.008669	0	0	0	-0.13428	0.031481	0.05299	-0.10347	0.020558	0.1677	-0.15636	-0.079828	0.053587
761	7.1614	-0.078056	-0.016734	0.1611	-0.14669	-0.24647	0.19581	-0.12756	-0.24401	0.22146	-0.046816	-0.15316	-0.008669	-0.046816	0.031938	-0.008669	0	0	0	-0.13427	0.03146	0.052995	-0.10353	0.020579	0.16772	-0.15635	-0.079849	0.053621
762	7.1708	-0.078085	-0.016727	0.16113	-0.14692	-0.24643	0.1958	-0.12785	-0.24396	0.22148	-0.046816	-0.15316	-0.008669	-0.046816	0.031938	-0.008669	0	0	0	-0.13427	0.031438	0.053001	-0.10359	0.020599	0.16775	-0.15634	-0.079871	0.053655
763	7.1802	-0.078115	-0.016719	0.16115	-0.14715	-0.2464	0.19578	-0.12813	-0.24391	0.2215	-0.046816	-0.15316	-0.008669	-0.046816	0.031938	-0.008669	0	0	0	-0.13427	0.031416	0.053006	-0.10364	0.02062	0.16777	-0.15634	-0.079894	0.053691
764	7.1896	-0.078144	-0.016711	0.16117	-0.14738	-0.24636	0.19578	-0.12841	-0.24387	0.22153	-0.046816	-0.15316	-0.008669	-0.046816	0.031938	-0.008669	0	0	0	-0.13427	0.031394	0.053011	-0.1037	0.02064	0.1678	-0.15633	-0.079917	0.053729
765	7.1991	-0.078174	-0.016703	0.1612	-0.14761	-0.24633	0.19577	-0.12869	-0.24382	0.22156	-0.046816	-0.15316	-0.008669	-0.046816	0.031938	-0.008669	0	0	0	-0.13427	0.031371	0.053016	-0.10376	0.020661	0.16782	-0.15633	-0.079941	0.053767
766	7.2085	-0.078203	-0.016695	0.16122	-0.14784	-0.24629	0.19577	-0.12896	-0.24377	0.22159	-0.046816	-0.15316	-0.008669	-0.046816	0.031938	-0.008669	0	0	0	-0.13427	0.031347	0.053021	-0.10382	0.020681	0.16784	-0.15632	-0.079965	0.053806
767	7.2179	-0.078232	-0.016687	0.16125	-0.14806	-0.24626	0.19577	-0.12924	-0.24372	0.22163	-0.046816	-0.15316	-0.008669	-0.046816	0.031938	-0.008669	0	0	0	-0.13427	0.031324	0.053026	-0.10388	0.020702	0.16787	-0.15631	-0.07999	0.053847
768	7.2273	-0.078262	-0.016679	0.16127	-0.14828	-0.24622	0.19577	-0.1295	-0.24367	0.22166	-0.046816	-0.15316	-0.008669	-0.046816	0.031938	-0.008669	0	0	0	-0.13427	0.0313	0.053031	-0.10393	0.020722	0.16789	-0.15631	-0.080016	0.053887
